Coordinates
version=1
nRows=20
nColumns=38
inDegrees=no

Units are S.I. units (second, meters, Newtons, ...)
If the header above contains a line with 'inDegrees', this indicates whether rotational values are in degrees (yes) or radians (no).

endheader
time	pelvis_tilt	pelvis_list	pelvis_rotation	pelvis_tx	pelvis_ty	pelvis_tz	hip_flexion_r	hip_adduction_r	hip_rotation_r	knee_angle_r	ankle_angle_r	subtalar_angle_r	mtp_angle_r	hip_flexion_l	hip_adduction_l	hip_rotation_l	knee_angle_l	ankle_angle_l	subtalar_angle_l	mtp_angle_l	lumbar_extension	lumbar_bending	lumbar_rotation	arm_flex_r	arm_add_r	arm_rot_r	elbow_flex_r	pro_sup_r	wrist_flex_r	wrist_dev_r	arm_flex_l	arm_add_l	arm_rot_l	elbow_flex_l	pro_sup_l	wrist_flex_l	wrist_dev_l
25	-0.282634	1.37557	1.87146	0.701272	0.128881	0.998583	0.410412	-0.29763	-0.648915	0.519717	0.135102	0	0	0.340222	-0.0567437	-0.409169	0.300654	0.0695875	0	0	-0.421349	0.00839165	0.0229686	0.4527	-0.501646	0.0437494	1.21914	0.790644	0	0	0.456068	-0.374262	0.0284777	1.24405	0.9509	0	0
25.01	-0.286046	1.37169	1.87	0.701239	0.127895	0.995928	0.430514	-0.307641	-0.641411	0.55085	0.143414	0	0	0.363269	-0.0683659	-0.433609	0.347081	0.0916877	0	0	-0.428509	0.00581639	0.0236287	0.465863	-0.497494	0.0430357	1.217	0.791659	0	0	0.462672	-0.373256	0.0217422	1.24645	0.948866	0	0
25.02	-0.287843	1.36786	1.86735	0.701203	0.12677	0.993003	0.451452	-0.317657	-0.633552	0.583172	0.151367	0	0	0.385598	-0.0802297	-0.453288	0.391596	0.111787	0	0	-0.435951	0.0036095	0.0238845	0.479493	-0.493258	0.04219	1.21508	0.791871	0	0	0.469882	-0.372778	0.0150129	1.24866	0.946918	0	0
25.03	-0.28646	1.3644	1.86174	0.701251	0.125575	0.989822	0.472729	-0.327179	-0.625881	0.616813	0.158876	0	0	0.407644	-0.0935637	-0.470768	0.436323	0.131159	0	0	-0.443603	0.00198314	0.0243089	0.493157	-0.489612	0.0425725	1.21378	0.792854	0	0	0.477938	-0.373052	0.00940954	1.25075	0.944995	0	0
25.04	-0.276248	1.36075	1.84772	0.70143	0.124321	0.986229	0.494822	-0.335081	-0.61914	0.651071	0.166688	0	0	0.431672	-0.110824	-0.488516	0.484928	0.151149	0	0	-0.449852	0.00199107	0.02559	0.506114	-0.486966	0.0435308	1.21372	0.793676	0	0	0.486465	-0.373912	0.00569965	1.25292	0.943184	0	0
25.05	-0.265191	1.35718	1.83339	0.701636	0.123092	0.982398	0.51639	-0.34314	-0.613752	0.684934	0.174788	0	0	0.455703	-0.130543	-0.508881	0.535572	0.170748	0	0	-0.45562	0.00222777	0.0271322	0.518388	-0.485114	0.044565	1.21454	0.794102	0	0	0.495765	-0.375428	0.0042119	1.25472	0.941886	0	0
25.06	-0.261494	1.35325	1.82789	0.701769	0.121749	0.978582	0.537244	-0.353495	-0.609448	0.717695	0.182565	0	0	0.476359	-0.144199	-0.519262	0.575445	0.185974	0	0	-0.461879	0.000932916	0.0272098	0.530244	-0.482926	0.0446174	1.21517	0.795641	0	0	0.507127	-0.37824	0.00513408	1.25518	0.941764	0	0
25.07	-0.259151	1.34929	1.82549	0.701809	0.120431	0.974589	0.556787	-0.364985	-0.60721	0.749521	0.190889	0	0	0.496394	-0.156724	-0.527813	0.61344	0.200131	0	0	-0.467771	-0.000311037	0.0261509	0.541355	-0.480779	0.0440749	1.21554	0.797941	0	0	0.519705	-0.381696	0.00814519	1.25418	0.941385	0	0
25.08	-0.256907	1.34524	1.82427	0.701824	0.119193	0.970337	0.575292	-0.376813	-0.606387	0.780098	0.200099	0	0	0.516009	-0.16912	-0.536352	0.650582	0.214034	0	0	-0.472814	-0.00154915	0.0246092	0.551401	-0.478606	0.0431207	1.2155	0.800245	0	0	0.532938	-0.385717	0.0129229	1.25219	0.939314	0	0
25.09	-0.255306	1.34108	1.8242	0.701838	0.118035	0.965819	0.593022	-0.38868	-0.606245	0.809285	0.210172	0	0	0.535024	-0.181271	-0.545221	0.68659	0.227461	0	0	-0.476976	-0.0030017	0.0228817	0.560799	-0.47663	0.0425356	1.21479	0.802198	0	0	0.54652	-0.390443	0.0193737	1.24935	0.93657	0	0
25.1	-0.25301	1.33717	1.82366	0.701893	0.116928	0.961085	0.60994	-0.400177	-0.606778	0.837575	0.220583	0	0	0.553268	-0.193379	-0.553929	0.721282	0.24035	0	0	-0.480758	-0.00427538	0.0212495	0.57037	-0.475375	0.0430506	1.21351	0.803488	0	0	0.560406	-0.395565	0.0273061	1.24634	0.933611	0	0
25.11	-0.249345	1.33362	1.82176	0.702	0.115808	0.956159	0.626416	-0.411116	-0.607389	0.865652	0.230957	0	0	0.570797	-0.205819	-0.562304	0.755167	0.253814	0	0	-0.484587	-0.00517931	0.0198597	0.580409	-0.474829	0.0445838	1.21217	0.804244	0	0	0.574192	-0.400494	0.0354993	1.24393	0.93099	0	0
25.12	-0.244236	1.3307	1.81834	0.702115	0.114661	0.951043	0.642599	-0.421616	-0.607699	0.894286	0.241055	0	0	0.587724	-0.218829	-0.569752	0.788992	0.268432	0	0	-0.488935	-0.00555464	0.0187648	0.590788	-0.474853	0.0470077	1.21117	0.805129	0	0	0.587676	-0.404843	0.0427431	1.24213	0.928579	0	0
25.13	-0.237574	1.32835	1.81313	0.702204	0.113457	0.945804	0.658665	-0.431598	-0.607187	0.923292	0.250988	0	0	0.604273	-0.232285	-0.575901	0.822472	0.281985	0	0	-0.494065	-0.00527102	0.0181084	0.601581	-0.475014	0.0490509	1.21076	0.805772	0	0	0.601246	-0.408468	0.0490459	1.24023	0.925698	0	0
25.14	-0.229745	1.32644	1.80654	0.702261	0.112223	0.940524	0.674535	-0.441024	-0.605696	0.952232	0.260856	0	0	0.620424	-0.245724	-0.580456	0.855146	0.294259	0	0	-0.499952	-0.00442335	0.0179414	0.61275	-0.475465	0.0511783	1.2103	0.80659	0	0	0.615268	-0.411297	0.0549838	1.23779	0.922129	0	0
25.15	-0.221255	1.32473	1.79886	0.702311	0.11097	0.93525	0.690317	-0.449715	-0.603283	0.980526	0.270206	0	0	0.636104	-0.258909	-0.583463	0.886647	0.306623	0	0	-0.506314	-0.00338705	0.0183634	0.624639	-0.4762	0.0533999	1.20925	0.806765	0	0	0.629706	-0.413547	0.0607954	1.23511	0.918087	0	0
25.16	-0.213557	1.32292	1.79123	0.702411	0.109707	0.929981	0.706273	-0.457865	-0.600239	1.00785	0.278913	0	0	0.651133	-0.271679	-0.585778	0.916643	0.319816	0	0	-0.512648	-0.00291369	0.01933	0.637115	-0.476613	0.0554575	1.20731	0.805824	0	0	0.644322	-0.415619	0.066456	1.23246	0.914099	0	0
25.17	-0.0804341	1.26511	1.63872	0.708093	0.103413	0.91555	0.8085	-0.407617	-0.563211	1.04066	0.284002	0	0	0.754674	-0.33612	-0.571523	0.979276	0.330523	0	0	-0.439278	0.00806063	0.0535959	0.628929	-0.476128	0.0562937	1.21021	0.803144	0	0	0.640647	-0.423516	0.0755701	1.23653	0.906753	0	0
25.18	-0.0810899	1.26077	1.63374	0.707977	0.101655	0.909654	0.830117	-0.413922	-0.558932	1.06678	0.290344	0	0	0.776387	-0.337962	-0.570322	1.00444	0.329618	0	0	-0.44185	0.00536801	0.0575556	0.641214	-0.476039	0.0583269	1.20839	0.79952	0	0	0.653797	-0.427491	0.0852757	1.23567	0.875589	0	0
25.19	-0.141799	1.21106	1.71599	0.703109	0.0974616	0.897826	0.911819	-0.471262	-0.539998	1.11102	0.292761	0	0	0.843865	-0.306233	-0.557932	1.02975	0.345322	0	0	-0.385091	-0.0105199	0.0264986	0.6334	-0.477728	0.0593527	1.21058	0.799215	0	0	0.652458	-0.431446	0.0929442	1.23615	0.867761	0	0
